<svg id="visual" viewBox="0 0 900 100" width="900" height="100" xmlns="http://www.w3.org/2000/svg" xmlns:xlink="http://www.w3.org/1999/xlink" version="1.1"><path d="M0 57L30 51.2C60 45.3 120 33.7 180 30.5C240 27.3 300 32.7 360 37.5C420 42.3 480 46.7 540 52.8C600 59 660 67 720 61.8C780 56.7 840 38.3 870 29.2L900 20L900 101L870 101C840 101 780 101 720 101C660 101 600 101 540 101C480 101 420 101 360 101C300 101 240 101 180 101C120 101 60 101 30 101L0 101Z" fill="#242541" stroke-linecap="round" stroke-linejoin="miter"></path></svg>