<?xml version="1.0"?>
<svg width="900" height="400" xmlns="http://www.w3.org/2000/svg" xmlns:svg="http://www.w3.org/2000/svg" xmlns:xlink="http://www.w3.org/1999/xlink" version="1.1">
 <g class="layer">
  <title>Layer 1</title>
  <path d="m-19,388l22.26,-10.8c22.26,-10.9 66.79,-32.5 111.12,-46c44.43,-13.5 88.54,-18.9 132.97,-6.7c44.32,12.2 88.85,41.8 133.17,56.8c44.43,15 88.54,15.4 132.97,8c44.32,-7.3 88.85,-22.3 133.17,-35.5c44.43,-13.1 88.54,-24.5 132.97,-16.5c44.32,8 88.85,35.4 111.12,49l22.26,13.7l0,-147l-22.26,0c-22.26,0 -66.79,0 -111.12,0c-44.43,0 -88.54,0 -132.97,0c-44.32,0 -88.85,0 -133.17,0c-44.43,0 -88.54,0 -132.97,0c-44.32,0 -88.85,0 -133.17,0c-44.43,0 -88.54,0 -132.97,0c-44.32,0 -88.85,0 -111.12,0l-22.26,0l0,135z" fill="#242541" id="svg_1" stroke-linecap="round" transform="matrix(1 0 0 1 0 0)"/>
  <use id="svg_7" transform="matrix(1.07968 0 0 0.761613 -765.896 -433.72)" x="659.65" xlink:href="#svg_6" y="308"/>
 </g>
 <defs>
  <symbol height="400" id="svg_6" version="1.1" viewBox="0 0 900 400" width="900" xmlns="http://www.w3.org/2000/svg" xmlns:xlink="http://www.w3.org/1999/xlink">
   <path d="m0,320l21.5,-5.8c21.5,-5.9 64.5,-17.5 107.3,-26.5c42.9,-9 85.5,-15.4 128.4,-17.5c42.8,-2.2 85.8,-0.2 128.6,12.1c42.9,12.4 85.5,35 128.4,35.5c42.8,0.5 85.8,-21.1 128.6,-24.1c42.9,-3 85.5,12.6 128.4,13c42.8,0.3 85.8,-14.7 107.3,-22.2l21.5,-7.5l0,124l-21.5,0c-21.5,0 -64.5,0 -107.3,0c-42.9,0 -85.5,0 -128.4,0c-42.8,0 -85.8,0 -128.6,0c-42.9,0 -85.5,0 -128.4,0c-42.8,0 -85.8,0 -128.6,0c-42.9,0 -85.5,0 -128.4,0c-42.8,0 -85.8,0 -107.3,0l-21.5,0l0,-81z" fill="#242541" stroke-linecap="round"/>
  </symbol>
 </defs>
</svg>