<svg id="visual" viewBox="0 0 900 100" width="900" height="100" xmlns="http://www.w3.org/2000/svg" xmlns:xlink="http://www.w3.org/1999/xlink" version="1.1"><path d="M0 20L11.5 25.8C23 31.7 46 43.3 69 51.8C92 60.3 115 65.7 138.2 68.2C161.3 70.7 184.7 70.3 207.8 66C231 61.7 254 53.3 277 53.7C300 54 323 63 346 68.2C369 73.3 392 74.7 415.2 66.7C438.3 58.7 461.7 41.3 484.8 32C508 22.7 531 21.3 554 31.2C577 41 600 62 623 67.2C646 72.3 669 61.7 692.2 52.7C715.3 43.7 738.7 36.3 761.8 38.3C785 40.3 808 51.7 831 56.3C854 61 877 59 888.5 58L900 57L900 101L888.5 101C877 101 854 101 831 101C808 101 785 101 761.8 101C738.7 101 715.3 101 692.2 101C669 101 646 101 623 101C600 101 577 101 554 101C531 101 508 101 484.8 101C461.7 101 438.3 101 415.2 101C392 101 369 101 346 101C323 101 300 101 277 101C254 101 231 101 207.8 101C184.7 101 161.3 101 138.2 101C115 101 92 101 69 101C46 101 23 101 11.5 101L0 101Z" fill="#242541" stroke-linecap="round" stroke-linejoin="miter"></path></svg>